<?xml version="1.0" ?><!DOCTYPE svg  PUBLIC '-//W3C//DTD SVG 1.1//EN'  'http://www.w3.org/Graphics/SVG/1.1/DTD/svg11.dtd'><svg enable-background="new 0 0 512 512" id="Layer_1" version="1.1" viewBox="0 0 512 512" xml:space="preserve" xmlns="http://www.w3.org/2000/svg" xmlns:xlink="http://www.w3.org/1999/xlink"><g><path d="M257.2,509c-74.3,0-148.6,0-222.9,0C15.1,509,3,497,3,477.9C3,330.6,3,183.3,3,36C3,17.2,15.1,5,33.8,5   c148.8,0,297.6,0,446.4,0C498.7,5,511,17.2,511,35.6c0,147.6,0,295.3,0,442.9c0,18.3-12.3,30.5-30.8,30.5   C405.9,509,331.5,509,257.2,509z M256.6,495c74.2,0,148.3,0,222.5,0c12.2,0,17.9-5.8,17.9-18.1c0-146.7,0-293.3,0-440   c0-12.2-5.8-17.9-18.1-17.9c-148,0-296,0-444,0C22.7,19,17,24.7,17,37.1c0,146.7,0,293.3,0,440c0,12.2,5.7,17.9,18.1,17.9   C108.9,495,182.7,495,256.6,495z"/><path d="M95.6,311.5c12.7,0,24.6,0,36.5,0c0.1-0.5,0.3-1.1,0.4-1.6c-42.1-13.3-65.1-41.4-68.1-85.4c13,3.6,25.3,7.1,37.6,10.5   c0.2-0.5,0.4-1,0.6-1.5c-38-32.1-47.1-70.5-25.8-116.7c47.9,56.1,107.3,86.7,180.4,91.8c-0.5-3.9-0.9-7-1.3-10.1   c-7.5-61.9,52.5-111.9,112-93.7c14,4.3,26.1,11.5,36.6,21.6c1.2,1.2,3.8,1.9,5.6,1.5c16.4-3.4,31.9-9.4,46.6-17.3   c1.3-0.7,2.6-1.3,4.8-2.4c-2.8,10.6-7.6,19.1-13.9,26.4s-13.7,13.7-20.7,20.6c15.6-1.8,30.7-6.3,45.5-12.3c0.3,0.4,0.7,0.8,1,1.2   c-7.1,8.2-13.9,16.8-21.4,24.6c-5.7,6-12.6,10.9-18.7,16.5c-1.4,1.3-2.6,3.6-2.5,5.4c0.9,51.6-12.5,99.2-39.7,142.8   c-28.9,46.2-68.7,79.8-120.1,98.7c-41.3,15.2-83.9,19.1-127.4,12.4c-32.6-5-63.1-16.1-91.2-33.6c-0.7-0.4-1.3-0.9-1.9-1.9   c22.6,2,44.8-0.1,66.5-6.3c21.6-6.1,41.3-16.1,59.9-30.6c-23.1-1.4-42.5-9.1-58.5-24.5C108.1,337.9,100.5,326.3,95.6,311.5z"/></g></svg>